<svg width="31" height="307" viewBox="0 0 31 307" fill="none" xmlns="http://www.w3.org/2000/svg">
<rect x="0.306641" width="30" height="205.932" rx="3" fill="#E5E5EF"/>
<rect y="50.4512" width="30" height="256" rx="3" fill="url(#paint0_linear_1_450)"/>
<path d="M9.62207 67.1689H10.6748C11.012 67.1689 11.29 67.112 11.5088 66.998C11.7275 66.8796 11.8893 66.7155 11.9941 66.5059C12.1035 66.2917 12.1582 66.0433 12.1582 65.7607C12.1582 65.5055 12.1081 65.2799 12.0078 65.084C11.9121 64.8835 11.764 64.7285 11.5635 64.6191C11.363 64.5052 11.11 64.4482 10.8047 64.4482C10.5632 64.4482 10.3398 64.4961 10.1348 64.5918C9.92969 64.6875 9.76562 64.8219 9.64258 64.9951C9.51953 65.1683 9.45801 65.3779 9.45801 65.624H7.48242C7.48242 65.0771 7.62826 64.6009 7.91992 64.1953C8.21615 63.7897 8.61263 63.473 9.10938 63.2451C9.60612 63.0173 10.153 62.9033 10.75 62.9033C11.4245 62.9033 12.0146 63.0127 12.5205 63.2314C13.0264 63.4456 13.4206 63.7624 13.7031 64.1816C13.9857 64.6009 14.127 65.1204 14.127 65.7402C14.127 66.0547 14.054 66.36 13.9082 66.6562C13.7624 66.9479 13.5527 67.2122 13.2793 67.4492C13.0104 67.6816 12.6823 67.8685 12.2949 68.0098C11.9076 68.1465 11.4723 68.2148 10.9893 68.2148H9.62207V67.1689ZM9.62207 68.666V67.6475H10.9893C11.5316 67.6475 12.0078 67.709 12.418 67.832C12.8281 67.9551 13.1722 68.1328 13.4502 68.3652C13.7282 68.5931 13.9378 68.8643 14.0791 69.1787C14.2204 69.4886 14.291 69.8327 14.291 70.2109C14.291 70.6758 14.2021 71.0905 14.0244 71.4551C13.8467 71.8151 13.596 72.1204 13.2725 72.3711C12.9535 72.6217 12.5798 72.8132 12.1514 72.9453C11.723 73.0729 11.2559 73.1367 10.75 73.1367C10.3307 73.1367 9.91829 73.0798 9.5127 72.9658C9.11165 72.8473 8.74707 72.6719 8.41895 72.4395C8.09538 72.2025 7.83561 71.9062 7.63965 71.5508C7.44824 71.1908 7.35254 70.7646 7.35254 70.2725H9.32812C9.32812 70.5277 9.39193 70.7555 9.51953 70.9561C9.64714 71.1566 9.82259 71.3138 10.0459 71.4277C10.2738 71.5417 10.5267 71.5986 10.8047 71.5986C11.1191 71.5986 11.388 71.5417 11.6113 71.4277C11.8392 71.3092 12.0124 71.1452 12.1309 70.9355C12.2539 70.7214 12.3154 70.473 12.3154 70.1904C12.3154 69.8258 12.2493 69.5342 12.1172 69.3154C11.985 69.0921 11.7959 68.9281 11.5498 68.8232C11.3037 68.7184 11.012 68.666 10.6748 68.666H9.62207ZM22.6172 69.2812V70.8262H15.4463L15.3506 69.6299L19.5 63.0469H21.0654L19.3701 65.8838L17.3057 69.2812H22.6172ZM21.4893 63.0469V73H19.5205V63.0469H21.4893Z" fill="white"/>
<defs>
<linearGradient id="paint0_linear_1_450" x1="15" y1="50.4512" x2="15" y2="306.451" gradientUnits="userSpaceOnUse">
<stop stop-color="#4A3AFF"/>
<stop offset="1" stop-color="#6D3AFF"/>
</linearGradient>
</defs>
</svg>
