<svg width="31" height="307" viewBox="0 0 31 307" fill="none" xmlns="http://www.w3.org/2000/svg">
<rect x="0.543335" width="30" height="211.307" rx="3" fill="#E5E5EF"/>
<rect x="0.904663" y="127.451" width="30" height="179" rx="3" fill="url(#paint0_linear_1_454)"/>
<path d="M10.6219 145.169H11.6747C12.0119 145.169 12.2899 145.112 12.5087 144.998C12.7274 144.88 12.8892 144.715 12.994 144.506C13.1034 144.292 13.1581 144.043 13.1581 143.761C13.1581 143.506 13.108 143.28 13.0077 143.084C12.912 142.883 12.7639 142.729 12.5634 142.619C12.3628 142.505 12.1099 142.448 11.8046 142.448C11.563 142.448 11.3397 142.496 11.1346 142.592C10.9296 142.688 10.7655 142.822 10.6425 142.995C10.5194 143.168 10.4579 143.378 10.4579 143.624H8.4823C8.4823 143.077 8.62813 142.601 8.9198 142.195C9.21602 141.79 9.61251 141.473 10.1093 141.245C10.606 141.017 11.1529 140.903 11.7499 140.903C12.4244 140.903 13.0145 141.013 13.5204 141.231C14.0262 141.446 14.4205 141.762 14.703 142.182C14.9856 142.601 15.1268 143.12 15.1268 143.74C15.1268 144.055 15.0539 144.36 14.9081 144.656C14.7622 144.948 14.5526 145.212 14.2792 145.449C14.0103 145.682 13.6822 145.868 13.2948 146.01C12.9074 146.146 12.4722 146.215 11.9891 146.215H10.6219V145.169ZM10.6219 146.666V145.647H11.9891C12.5315 145.647 13.0077 145.709 13.4178 145.832C13.828 145.955 14.1721 146.133 14.4501 146.365C14.7281 146.593 14.9377 146.864 15.079 147.179C15.2203 147.489 15.2909 147.833 15.2909 148.211C15.2909 148.676 15.202 149.09 15.0243 149.455C14.8466 149.815 14.5959 150.12 14.2723 150.371C13.9533 150.622 13.5796 150.813 13.1512 150.945C12.7229 151.073 12.2557 151.137 11.7499 151.137C11.3306 151.137 10.9182 151.08 10.5126 150.966C10.1115 150.847 9.74695 150.672 9.41882 150.439C9.09526 150.202 8.83549 149.906 8.63953 149.551C8.44812 149.191 8.35242 148.765 8.35242 148.272H10.328C10.328 148.528 10.3918 148.756 10.5194 148.956C10.647 149.157 10.8225 149.314 11.0458 149.428C11.2736 149.542 11.5266 149.599 11.8046 149.599C12.119 149.599 12.3879 149.542 12.6112 149.428C12.8391 149.309 13.0122 149.145 13.1307 148.936C13.2538 148.721 13.3153 148.473 13.3153 148.19C13.3153 147.826 13.2492 147.534 13.1171 147.315C12.9849 147.092 12.7958 146.928 12.5497 146.823C12.3036 146.718 12.0119 146.666 11.6747 146.666H10.6219ZM23.6171 147.281V148.826H16.4462L16.3505 147.63L20.4999 141.047H22.0653L20.37 143.884L18.3055 147.281H23.6171ZM22.4891 141.047V151H20.5204V141.047H22.4891Z" fill="white"/>
<defs>
<linearGradient id="paint0_linear_1_454" x1="15.9047" y1="127.451" x2="15.9047" y2="306.451" gradientUnits="userSpaceOnUse">
<stop stop-color="#4A3AFF"/>
<stop offset="1" stop-color="#6D3AFF"/>
</linearGradient>
</defs>
</svg>
