<svg width="31" height="306" viewBox="0 0 31 306" fill="none" xmlns="http://www.w3.org/2000/svg">
<rect x="0.141357" width="30" height="235" rx="3" fill="#E5E5EF"/>
<rect x="0.423584" y="171.578" width="30" height="134.404" rx="3" fill="url(#paint0_linear_1_458)"/>
<path d="M9.62183 189.169H10.6746C11.0118 189.169 11.2898 189.112 11.5085 188.998C11.7273 188.88 11.8891 188.715 11.9939 188.506C12.1033 188.292 12.158 188.043 12.158 187.761C12.158 187.506 12.1078 187.28 12.0076 187.084C11.9119 186.883 11.7638 186.729 11.5632 186.619C11.3627 186.505 11.1098 186.448 10.8044 186.448C10.5629 186.448 10.3396 186.496 10.1345 186.592C9.92944 186.688 9.76538 186.822 9.64233 186.995C9.51929 187.168 9.45776 187.378 9.45776 187.624H7.48218C7.48218 187.077 7.62801 186.601 7.91968 186.195C8.2159 185.79 8.61239 185.473 9.10913 185.245C9.60588 185.017 10.1528 184.903 10.7498 184.903C11.4242 184.903 12.0144 185.013 12.5203 185.231C13.0261 185.446 13.4203 185.762 13.7029 186.182C13.9854 186.601 14.1267 187.12 14.1267 187.74C14.1267 188.055 14.0538 188.36 13.908 188.656C13.7621 188.948 13.5525 189.212 13.2791 189.449C13.0102 189.682 12.682 189.868 12.2947 190.01C11.9073 190.146 11.4721 190.215 10.989 190.215H9.62183V189.169ZM9.62183 190.666V189.647H10.989C11.5313 189.647 12.0076 189.709 12.4177 189.832C12.8279 189.955 13.172 190.133 13.45 190.365C13.7279 190.593 13.9376 190.864 14.0789 191.179C14.2201 191.489 14.2908 191.833 14.2908 192.211C14.2908 192.676 14.2019 193.09 14.0242 193.455C13.8464 193.815 13.5958 194.12 13.2722 194.371C12.9532 194.622 12.5795 194.813 12.1511 194.945C11.7227 195.073 11.2556 195.137 10.7498 195.137C10.3305 195.137 9.91805 195.08 9.51245 194.966C9.11141 194.847 8.74683 194.672 8.4187 194.439C8.09513 194.202 7.83537 193.906 7.6394 193.551C7.448 193.191 7.35229 192.765 7.35229 192.272H9.32788C9.32788 192.528 9.39168 192.756 9.51929 192.956C9.64689 193.157 9.82235 193.314 10.0457 193.428C10.2735 193.542 10.5264 193.599 10.8044 193.599C11.1189 193.599 11.3878 193.542 11.6111 193.428C11.8389 193.309 12.0121 193.145 12.1306 192.936C12.2537 192.721 12.3152 192.473 12.3152 192.19C12.3152 191.826 12.2491 191.534 12.1169 191.315C11.9848 191.092 11.7957 190.928 11.5496 190.823C11.3035 190.718 11.0118 190.666 10.6746 190.666H9.62183ZM22.6169 191.281V192.826H15.446L15.3503 191.63L19.4998 185.047H21.0652L19.3699 187.884L17.3054 191.281H22.6169ZM21.489 185.047V195H19.5203V185.047H21.489Z" fill="white"/>
<defs>
<linearGradient id="paint0_linear_1_458" x1="15.4236" y1="171.578" x2="15.4236" y2="305.982" gradientUnits="userSpaceOnUse">
<stop stop-color="#4A3AFF"/>
<stop offset="1" stop-color="#6D3AFF"/>
</linearGradient>
</defs>
</svg>
