<svg width="31" height="307" viewBox="0 0 31 307" fill="none" xmlns="http://www.w3.org/2000/svg">
<rect x="0.686157" width="30" height="211.307" rx="3" fill="#E5E5EF"/>
<rect x="0.660278" y="99.4512" width="30" height="207" rx="3" fill="url(#paint0_linear_1_462)"/>
<path d="M10.6222 117.169H11.6749C12.0122 117.169 12.2902 117.112 12.5089 116.998C12.7277 116.88 12.8894 116.715 12.9943 116.506C13.1036 116.292 13.1583 116.043 13.1583 115.761C13.1583 115.506 13.1082 115.28 13.0079 115.084C12.9122 114.883 12.7641 114.729 12.5636 114.619C12.3631 114.505 12.1101 114.448 11.8048 114.448C11.5633 114.448 11.34 114.496 11.1349 114.592C10.9298 114.688 10.7657 114.822 10.6427 114.995C10.5197 115.168 10.4581 115.378 10.4581 115.624H8.48254C8.48254 115.077 8.62838 114.601 8.92004 114.195C9.21627 113.79 9.61275 113.473 10.1095 113.245C10.6062 113.017 11.1531 112.903 11.7501 112.903C12.4246 112.903 13.0148 113.013 13.5206 113.231C14.0265 113.446 14.4207 113.762 14.7032 114.182C14.9858 114.601 15.1271 115.12 15.1271 115.74C15.1271 116.055 15.0542 116.36 14.9083 116.656C14.7625 116.948 14.5529 117.212 14.2794 117.449C14.0105 117.682 13.6824 117.868 13.295 118.01C12.9077 118.146 12.4725 118.215 11.9894 118.215H10.6222V117.169ZM10.6222 118.666V117.647H11.9894C12.5317 117.647 13.0079 117.709 13.4181 117.832C13.8282 117.955 14.1723 118.133 14.4503 118.365C14.7283 118.593 14.9379 118.864 15.0792 119.179C15.2205 119.489 15.2911 119.833 15.2911 120.211C15.2911 120.676 15.2023 121.09 15.0245 121.455C14.8468 121.815 14.5962 122.12 14.2726 122.371C13.9536 122.622 13.5799 122.813 13.1515 122.945C12.7231 123.073 12.256 123.137 11.7501 123.137C11.3309 123.137 10.9184 123.08 10.5128 122.966C10.1118 122.847 9.74719 122.672 9.41907 122.439C9.0955 122.202 8.83573 121.906 8.63977 121.551C8.44836 121.191 8.35266 120.765 8.35266 120.272H10.3282C10.3282 120.528 10.392 120.756 10.5197 120.956C10.6473 121.157 10.8227 121.314 11.046 121.428C11.2739 121.542 11.5268 121.599 11.8048 121.599C12.1193 121.599 12.3881 121.542 12.6115 121.428C12.8393 121.309 13.0125 121.145 13.131 120.936C13.254 120.721 13.3156 120.473 13.3156 120.19C13.3156 119.826 13.2495 119.534 13.1173 119.315C12.9851 119.092 12.796 118.928 12.5499 118.823C12.3038 118.718 12.0122 118.666 11.6749 118.666H10.6222ZM23.6173 119.281V120.826H16.4464L16.3507 119.63L20.5001 113.047H22.0656L20.3702 115.884L18.3058 119.281H23.6173ZM22.4894 113.047V123H20.5206V113.047H22.4894Z" fill="white"/>
<defs>
<linearGradient id="paint0_linear_1_462" x1="15.6603" y1="99.4512" x2="15.6603" y2="306.451" gradientUnits="userSpaceOnUse">
<stop stop-color="#4A3AFF"/>
<stop offset="1" stop-color="#6D3AFF"/>
</linearGradient>
</defs>
</svg>
