<svg width="31" height="307" viewBox="0 0 31 307" fill="none" xmlns="http://www.w3.org/2000/svg">
<rect x="1" width="30" height="165.752" rx="3" fill="#E5E5EF"/>
<rect x="0.922852" y="134.451" width="30" height="172" rx="3" fill="url(#paint0_linear_1_466)"/>
<path d="M10.6221 153.169H11.6748C12.012 153.169 12.29 153.112 12.5088 152.998C12.7275 152.88 12.8893 152.715 12.9941 152.506C13.1035 152.292 13.1582 152.043 13.1582 151.761C13.1582 151.506 13.1081 151.28 13.0078 151.084C12.9121 150.883 12.764 150.729 12.5635 150.619C12.363 150.505 12.11 150.448 11.8047 150.448C11.5632 150.448 11.3398 150.496 11.1348 150.592C10.9297 150.688 10.7656 150.822 10.6426 150.995C10.5195 151.168 10.458 151.378 10.458 151.624H8.48242C8.48242 151.077 8.62826 150.601 8.91992 150.195C9.21615 149.79 9.61263 149.473 10.1094 149.245C10.6061 149.017 11.153 148.903 11.75 148.903C12.4245 148.903 13.0146 149.013 13.5205 149.231C14.0264 149.446 14.4206 149.762 14.7031 150.182C14.9857 150.601 15.127 151.12 15.127 151.74C15.127 152.055 15.054 152.36 14.9082 152.656C14.7624 152.948 14.5527 153.212 14.2793 153.449C14.0104 153.682 13.6823 153.868 13.2949 154.01C12.9076 154.146 12.4723 154.215 11.9893 154.215H10.6221V153.169ZM10.6221 154.666V153.647H11.9893C12.5316 153.647 13.0078 153.709 13.418 153.832C13.8281 153.955 14.1722 154.133 14.4502 154.365C14.7282 154.593 14.9378 154.864 15.0791 155.179C15.2204 155.489 15.291 155.833 15.291 156.211C15.291 156.676 15.2021 157.09 15.0244 157.455C14.8467 157.815 14.596 158.12 14.2725 158.371C13.9535 158.622 13.5798 158.813 13.1514 158.945C12.723 159.073 12.2559 159.137 11.75 159.137C11.3307 159.137 10.9183 159.08 10.5127 158.966C10.1117 158.847 9.74707 158.672 9.41895 158.439C9.09538 158.202 8.83561 157.906 8.63965 157.551C8.44824 157.191 8.35254 156.765 8.35254 156.272H10.3281C10.3281 156.528 10.3919 156.756 10.5195 156.956C10.6471 157.157 10.8226 157.314 11.0459 157.428C11.2738 157.542 11.5267 157.599 11.8047 157.599C12.1191 157.599 12.388 157.542 12.6113 157.428C12.8392 157.309 13.0124 157.145 13.1309 156.936C13.2539 156.721 13.3154 156.473 13.3154 156.19C13.3154 155.826 13.2493 155.534 13.1172 155.315C12.985 155.092 12.7959 154.928 12.5498 154.823C12.3037 154.718 12.012 154.666 11.6748 154.666H10.6221ZM23.6172 155.281V156.826H16.4463L16.3506 155.63L20.5 149.047H22.0654L20.3701 151.884L18.3057 155.281H23.6172ZM22.4893 149.047V159H20.5205V149.047H22.4893Z" fill="white"/>
<defs>
<linearGradient id="paint0_linear_1_466" x1="15.9229" y1="134.451" x2="15.9229" y2="306.451" gradientUnits="userSpaceOnUse">
<stop stop-color="#4A3AFF"/>
<stop offset="1" stop-color="#6D3AFF"/>
</linearGradient>
</defs>
</svg>
